<?xml version="1.0" standalone="no"?>
<!DOCTYPE svg PUBLIC "-//W3C//DTD SVG 20010904//EN"
 "http://www.w3.org/TR/2001/REC-SVG-20010904/DTD/svg10.dtd">
<svg version="1.0" xmlns="http://www.w3.org/2000/svg"
 width="600.000000pt" height="600.000000pt" viewBox="0 0 600.000000 600.000000"
 preserveAspectRatio="xMidYMid meet">
<metadata>
Created by potrace 1.14, written by Peter Selinger 2001-2017
</metadata>
<g transform="translate(0.000000,600.000000) scale(0.100000,-0.100000)"
fill="#000000" stroke="none">
<path d="M0 3000 l0 -3000 1494 0 c1156 1 1496 4 1500 13 3 9 5 9 5 0 1 -10
316 -13 1501 -13 l1500 0 0 3000 0 3000 -1494 0 c-1156 -1 -1496 -4 -1500 -13
-3 -9 -5 -9 -5 0 -1 10 -316 13 -1501 13 l-1500 0 0 -3000z m2678 2983 c-10
-2 -18 -9 -18 -15 0 -6 -3 -9 -6 -5 -10 10 6 27 24 26 15 -1 15 -2 0 -6z m822
-17 c0 -2 -11 -6 -25 -8 -13 -3 -22 -1 -19 3 5 9 44 13 44 5z m-1033 -12 c-3
-3 -12 -4 -19 -1 -8 3 -5 6 6 6 11 1 17 -2 13 -5z m-50 -10 c-3 -3 -12 -4 -19
-1 -8 3 -5 6 6 6 11 1 17 -2 13 -5z m230 -46 c-3 -7 -5 -2 -5 12 0 14 2 19 5
13 2 -7 2 -19 0 -25z m260 10 c-3 -8 -6 -5 -6 6 -1 11 2 17 5 13 3 -3 4 -12 1
-19z m120 0 c-3 -8 -6 -5 -6 6 -1 11 2 17 5 13 3 -3 4 -12 1 -19z m260 0 c-3
-8 -6 -5 -6 6 -1 11 2 17 5 13 3 -3 4 -12 1 -19z m276 -241 c9 -6 8 -7 -3 -4
-12 3 -15 26 -16 128 l0 124 3 -120 c3 -79 8 -122 16 -128z m-1356 227 c-3 -3
-12 -4 -19 -1 -8 3 -5 6 6 6 11 1 17 -2 13 -5z m180 -116 c-2 -24 -4 -5 -4 42
0 47 2 66 4 43 2 -24 2 -62 0 -85z m510 80 c-3 -8 -6 -5 -6 6 -1 11 2 17 5 13
3 -3 4 -12 1 -19z m140 0 c-3 -8 -6 -5 -6 6 -1 11 2 17 5 13 3 -3 4 -12 1 -19z
m260 -55 c-3 -10 -5 -2 -5 17 0 19 2 27 5 18 2 -10 2 -26 0 -35z m703 33 c0
-2 -7 -7 -16 -10 -8 -3 -12 -2 -9 4 6 10 25 14 25 6z m-1364 -122 c-3 -8 -11
-14 -18 -13 -10 0 -10 2 0 6 7 3 13 28 14 66 l2 62 3 -54 c2 -29 2 -60 -1 -67z
m411 94 c-3 -8 -6 -5 -6 6 -1 11 2 17 5 13 3 -3 4 -12 1 -19z m-160 -20 c-3
-7 -5 -2 -5 12 0 14 2 19 5 13 2 -7 2 -19 0 -25z m1171 -14 c-3 -27 -4 -26 -9
8 -3 22 -1 34 4 29 5 -5 7 -21 5 -37z m-1921 -31 c-3 -10 -5 -2 -5 17 0 19 2
27 5 18 2 -10 2 -26 0 -35z m-260 15 c-3 -8 -6 -5 -6 6 -1 11 2 17 5 13 3 -3
4 -12 1 -19z m1204 -31 c15 -4 14 -4 -3 -3 -16 1 -23 8 -24 21 -1 14 0 15 3 3
2 -9 13 -19 24 -21z m716 -4 c-3 -10 -5 -2 -5 17 0 19 2 27 5 18 2 -10 2 -26
0 -35z m-670 15 c-3 -8 -6 -5 -6 6 -1 11 2 17 5 13 3 -3 4 -12 1 -19z m-247
-8 c0 -5 -8 -10 -17 -10 -15 0 -16 2 -3 10 19 12 20 12 20 0z m1369 7 c-2 -1
-13 -9 -24 -17 -19 -14 -19 -14 -6 3 7 9 18 17 24 17 6 0 8 -1 6 -3z m-2362
-39 c-3 -8 -6 -5 -6 6 -1 11 2 17 5 13 3 -3 4 -12 1 -19z m687 6 c3 -8 2 -12
-4 -9 -6 3 -10 10 -10 16 0 14 7 11 14 -7z m1473 -6 c-3 -8 -6 -5 -6 6 -1 11
2 17 5 13 3 -3 4 -12 1 -19z m-2337 8 c0 -2 -9 -6 -20 -9 -11 -3 -18 -1 -14 4
5 9 34 13 34 5z m1623 -3 c-7 -2 -19 -2 -25 0 -7 3 -2 5 12 5 14 0 19 -2 13
-5z m-1598 -33 c10 -11 16 -20 13 -20 -3 0 -13 9 -23 20 -10 11 -16 20 -13 20
3 0 13 -9 23 -20z m412 -12 c-3 -7 -5 -2 -5 12 0 14 2 19 5 13 2 -7 2 -19 0
-25z m-510 -20 c-3 -8 -6 -5 -6 6 -1 11 2 17 5 13 3 -3 4 -12 1 -19z m260 0
c-3 -8 -6 -5 -6 6 -1 11 2 17 5 13 3 -3 4 -12 1 -19z m1890 -10 c-3 -7 -5 -2
-5 12 0 14 2 19 5 13 2 -7 2 -19 0 -25z m250 10 c-3 -8 -6 -5 -6 6 -1 11 2 17
5 13 3 -3 4 -12 1 -19z m459 -30 c5 -7 3 -8 -5 -3 -8 4 -27 -6 -49 -26 l-37
-34 34 38 c37 40 46 44 57 25z m-2976 -85 l55 -58 -60 55 c-33 30 -62 56 -64
58 -2 1 0 2 5 2 5 0 34 -26 64 -57z m397 25 c-3 -8 -6 -5 -6 6 -1 11 2 17 5
13 3 -3 4 -12 1 -19z m1127 -90 c3 -51 8 -157 11 -235 l6 -143 -61 0 -60 0 0
69 c0 95 -8 130 -29 124 -14 -3 -16 -17 -13 -97 l3 -93 -32 -7 c-17 -3 -44 -6
-60 -6 l-29 0 0 68 c0 38 -3 144 -7 235 l-6 167 62 0 c62 0 62 0 61 -27 -1
-16 -2 -54 -1 -85 1 -52 3 -58 22 -58 20 0 21 4 18 85 l-4 84 35 4 c85 9 78
17 84 -85z m973 70 c-3 -8 -6 -5 -6 6 -1 11 2 17 5 13 3 -3 4 -12 1 -19z
m-784 3 c23 -1 27 -5 27 -32 l0 -30 -47 6 c-69 9 -71 11 -66 39 5 22 10 26 32
22 14 -2 38 -5 54 -5z m1147 -25 c0 -2 -8 -10 -17 -17 -16 -13 -17 -12 -4 4
13 16 21 21 21 13z m-40 -50 c0 -2 -8 -10 -17 -17 -16 -13 -17 -12 -4 4 13 16
21 21 21 13z m-1087 -13 c4 -7 -6 -144 -17 -238 -3 -22 -5 -61 -5 -87 l-1 -48
-47 0 c-70 0 -75 7 -69 76 14 139 26 280 26 292 0 13 106 18 113 5z m991 -19
c3 -8 2 -12 -4 -9 -6 3 -10 10 -10 16 0 14 7 11 14 -7z m-2983 -11 c13 -16 12
-17 -3 -4 -10 7 -18 15 -18 17 0 8 8 3 21 -13z m360 0 c13 -16 12 -17 -3 -4
-10 7 -18 15 -18 17 0 8 8 3 21 -13z m1829 2 c15 -8 31 -20 33 -27 4 -10 7
-10 15 0 9 13 71 9 98 -7 7 -4 -3 -66 -28 -186 -46 -212 -54 -225 -141 -225
-90 1 -172 55 -154 103 4 11 15 12 56 3 28 -5 51 -15 51 -22 0 -22 23 -28 37
-9 25 36 17 51 -27 47 -61 -6 -90 17 -90 72 0 55 28 192 46 228 21 40 55 48
104 23z m390 -35 c0 -4 -7 -24 -15 -43 -19 -47 -19 -50 4 -42 29 9 89 -20 103
-50 10 -22 5 -43 -42 -168 -73 -195 -62 -180 -113 -160 -23 9 -46 19 -50 23
-4 4 17 71 48 150 39 99 52 147 45 154 -18 18 -36 -13 -86 -144 -25 -69 -50
-129 -54 -134 -9 -9 -100 22 -100 34 0 6 119 323 155 412 6 15 11 15 56 -4 27
-11 49 -24 49 -28z m810 47 c0 -1 -33 -34 -72 -72 l-73 -70 70 73 c64 67 75
77 75 69z m-2139 -42 c16 -9 35 -28 40 -43 23 -57 78 -287 71 -293 -4 -3 -26
-11 -50 -17 -36 -8 -44 -8 -49 4 -4 12 -9 11 -20 -6 -19 -27 -58 -42 -89 -34
-31 8 -53 50 -61 114 l-6 48 57 44 c54 40 57 45 52 77 -6 40 -19 56 -36 46 -8
-5 -10 -22 -6 -49 l7 -42 -48 -11 c-26 -6 -50 -10 -52 -7 -2 2 -6 25 -9 52 -3
40 0 53 19 75 25 28 86 55 127 56 13 1 36 -6 53 -14z m-1191 -20 c13 -14 21
-25 18 -25 -2 0 -15 11 -28 25 -13 14 -21 25 -18 25 2 0 15 -11 28 -25z m51
-52 c13 -16 12 -17 -3 -4 -17 13 -22 21 -14 21 2 0 10 -8 17 -17z m899 -176
c51 -119 69 -173 65 -190 -17 -54 -97 -107 -167 -110 -32 -1 -44 4 -60 23
l-20 25 48 21 c35 16 53 19 62 11 20 -16 35 6 27 42 l-7 32 -34 -31 c-45 -39
-84 -40 -116 -2 -36 43 -102 215 -94 246 8 33 59 60 97 52 21 -4 29 -2 29 9 0
15 81 56 91 46 4 -3 39 -81 79 -174z m-783 151 c-3 -8 -6 -5 -6 6 -1 11 2 17
5 13 3 -3 4 -12 1 -19z m3448 12 c3 -6 -1 -7 -9 -4 -18 7 -21 14 -7 14 6 0 13
-4 16 -10z m43 -45 c-3 -3 -9 2 -12 12 -6 14 -5 15 5 6 7 -7 10 -15 7 -18z
m-3958 1 c0 -2 -8 -10 -17 -17 -16 -13 -17 -12 -4 4 13 16 21 21 21 13z m3790
-30 c0 -2 -8 -10 -17 -17 -16 -13 -17 -12 -4 4 13 16 21 21 21 13z m-497 -66
c76 -48 95 -113 49 -170 l-18 -23 -42 28 c-23 15 -42 29 -42 32 0 2 7 15 16
28 9 13 13 29 9 35 -12 19 -34 10 -50 -19 -14 -28 -13 -34 15 -105 17 -41 30
-82 30 -90 0 -29 -48 -113 -77 -136 -21 -17 -37 -21 -65 -17 -74 10 -148 78
-148 136 0 13 11 44 25 68 l26 43 42 -27 c23 -15 43 -28 45 -29 2 -1 -7 -20
-20 -43 -16 -29 -20 -43 -12 -51 16 -16 41 -2 55 32 11 27 10 40 -14 107 -33
93 -33 103 -2 157 48 81 99 94 178 44z m447 27 c0 -2 -12 -14 -27 -28 l-28
-24 24 28 c23 25 31 32 31 24z m-99 -34 c13 -16 12 -17 -3 -4 -10 7 -18 15
-18 17 0 8 8 3 21 -13z m-3470 -10 c13 -16 12 -17 -3 -4 -17 13 -22 21 -14 21
2 0 10 -8 17 -17z m670 -3 c9 0 203 -290 197 -295 -20 -15 -84 -55 -89 -55 -4
0 -44 59 -89 130 -76 120 -110 155 -110 113 0 -9 33 -68 73 -132 40 -64 77
-121 80 -128 9 -15 -81 -70 -93 -57 -15 17 -190 295 -190 303 0 5 19 21 41 36
29 18 44 24 52 16 7 -7 15 0 26 22 17 34 57 60 79 52 8 -3 18 -5 23 -5z m3290
-37 l24 -28 -30 25 c-16 14 -32 26 -34 28 -2 1 0 2 6 2 5 0 20 -12 34 -27z
m-3648 -150 c-44 -38 -58 -40 -73 -14 -8 16 -3 25 33 55 l42 36 18 -22 c18
-22 18 -22 -20 -55z m3387 21 c0 -8 -19 -13 -24 -6 -3 5 1 9 9 9 8 0 15 -2 15
-3z m-3208 -157 l117 -142 -42 -37 c-23 -21 -44 -38 -47 -37 -3 0 -58 66 -123
145 l-118 145 27 22 c52 41 59 46 64 46 3 0 58 -64 122 -142z m3639 96 c13
-16 12 -17 -3 -4 -10 7 -18 15 -18 17 0 8 8 3 21 -13z m-808 -17 c18 -7 45
-28 60 -45 46 -56 48 -102 5 -153 l-23 -28 -38 36 -38 35 26 30 c25 30 26 49
1 49 -14 0 -159 -163 -164 -185 -7 -29 21 -26 54 6 l34 33 35 -34 35 -34 -23
-24 c-59 -64 -128 -61 -191 9 -61 67 -50 108 64 232 82 89 103 98 163 73z
m-2973 -189 l134 -137 -39 -40 -39 -40 -163 162 -163 163 42 42 42 43 26 -27
c15 -16 87 -90 160 -166z m3520 189 c0 -2 -8 -10 -17 -17 -16 -13 -17 -12 -4
4 13 16 21 21 21 13z m-4159 -43 c13 -16 12 -17 -3 -4 -10 7 -18 15 -18 17 0
8 8 3 21 -13z m2445 -47 c353 -75 663 -238 918 -485 261 -253 429 -545 515
-893 30 -122 56 -287 46 -297 -6 -5 -66 26 -75 39 -3 4 -23 12 -45 18 l-40 11
37 -5 38 -5 -6 33 c-45 270 -106 450 -222 650 -101 176 -272 377 -418 491
l-59 47 -18 -23 -18 -22 13 28 c15 35 12 37 -137 126 -353 209 -831 288 -1245
205 -156 -31 -354 -99 -344 -117 5 -9 4 -9 -6 0 -10 9 -28 4 -84 -24 -110 -54
-237 -136 -232 -150 3 -7 0 -10 -7 -7 -18 6 -158 -109 -252 -207 -264 -276
-435 -622 -481 -977 l-7 -53 117 3 c64 2 116 0 116 -4 0 -5 -53 -8 -119 -8
l-118 0 -7 -37 c-8 -49 -8 -287 0 -307 5 -13 26 -16 123 -16 l116 0 1 -78 c0
-67 -1 -72 -8 -37 -5 22 -7 55 -4 73 l5 32 -114 0 -115 0 5 -27 c42 -258 78
-377 166 -563 73 -151 160 -283 271 -410 93 -105 275 -263 294 -256 7 3 11 0
8 -7 -5 -15 94 -81 213 -141 70 -35 93 -42 102 -33 10 9 12 9 9 -2 -5 -22 171
-84 350 -121 210 -44 486 -44 698 -1 183 38 398 115 389 140 -4 11 -3 12 10 1
12 -10 28 -5 92 30 119 65 225 139 217 152 -4 6 -3 8 3 5 27 -17 276 232 389
388 76 107 191 334 233 460 30 93 64 242 76 332 6 44 4 52 -12 56 -14 4 -14 5
5 6 12 0 22 7 22 14 0 15 69 71 78 63 8 -9 -13 -190 -33 -291 -42 -209 -149
-460 -274 -648 -512 -765 -1508 -1041 -2336 -648 -944 448 -1336 1585 -864
2511 247 487 678 833 1202 966 178 45 264 53 492 49 177 -3 229 -7 331 -29z
m-2425 -9 c-10 -9 -11 -8 -5 6 3 10 9 15 12 12 3 -3 0 -11 -7 -18z m4379 0 c0
-2 -10 -12 -22 -23 l-23 -19 19 23 c18 21 26 27 26 19z m-4659 -24 c13 -16 12
-17 -3 -4 -10 7 -18 15 -18 17 0 8 8 3 21 -13z m4209 -99 c0 -6 -16 -22 -35
-35 -37 -25 -44 -39 -21 -39 7 0 25 -12 40 -27 21 -21 26 -35 24 -62 -3 -33
-15 -46 -133 -144 l-129 -108 -19 23 c-49 62 -52 68 -31 83 60 43 219 182 217
190 -5 27 -41 8 -147 -80 l-117 -96 -27 32 c-15 18 -30 37 -34 44 -5 8 54 63
170 158 l177 146 32 -37 c18 -20 32 -42 33 -48z m400 63 c0 -2 -19 -21 -42
-42 l-43 -40 40 43 c36 39 45 47 45 39z m-4550 -32 c13 -14 21 -25 18 -25 -2
0 -15 11 -28 25 -13 14 -21 25 -18 25 2 0 15 -11 28 -25z m4775 5 c3 -6 -1 -7
-9 -4 -18 7 -21 14 -7 14 6 0 13 -4 16 -10z m-4965 -54 c0 -2 -7 -7 -16 -10
-8 -3 -12 -2 -9 4 6 10 25 14 25 6z m803 -7 c12 -7 72 -52 134 -102 l112 -90
-31 -39 c-21 -27 -36 -37 -48 -33 -14 4 -16 1 -12 -20 6 -32 -40 -85 -73 -85
-23 0 -89 43 -114 74 -13 15 -12 27 4 91 l18 74 -24 20 c-28 24 -59 27 -59 7
0 -8 14 -25 30 -38 l31 -24 -35 -39 -36 -40 -35 37 c-41 45 -44 76 -12 133 24
43 78 85 109 85 11 0 29 -5 41 -11z m4007 7 c0 -2 -7 -7 -16 -10 -8 -3 -12 -2
-9 4 6 10 25 14 25 6z m180 -19 c0 -1 -39 -41 -87 -87 l-88 -85 85 88 c79 81
90 92 90 84z m-4720 -21 c0 -2 -8 -10 -17 -17 -16 -13 -17 -12 -4 4 13 16 21
21 21 13z m1530 -46 c6 -11 8 -20 6 -20 -3 0 -10 9 -16 20 -6 11 -8 20 -6 20
3 0 10 -9 16 -20z m-1565 0 c-3 -5 -12 -10 -18 -10 -7 0 -6 4 3 10 19 12 23
12 15 0z m-230 -40 c21 -22 37 -40 34 -40 -3 0 -23 18 -44 40 -21 22 -37 40
-34 40 3 0 23 -18 44 -40z m3165 10 c-6 -11 -13 -20 -16 -20 -2 0 0 9 6 20 6
11 13 20 16 20 2 0 0 -9 -6 -20z m-1340 -20 c6 -11 8 -20 6 -20 -3 0 -10 9
-16 20 -6 11 -8 20 -6 20 3 0 10 -9 16 -20z m3277 -36 c-3 -3 -12 -4 -19 -1
-8 3 -5 6 6 6 11 1 17 -2 13 -5z m-3237 -34 c6 -11 8 -20 6 -20 -3 0 -10 9
-16 20 -6 11 -8 20 -6 20 3 0 10 -9 16 -20z m-1755 -20 c10 -11 16 -20 13 -20
-3 0 -13 9 -23 20 -10 11 -16 20 -13 20 3 0 13 -9 23 -20z m1790 -40 c9 -16
13 -30 11 -30 -3 0 -12 14 -21 30 -9 17 -13 30 -11 30 3 0 12 -13 21 -30z
m2916 13 c13 -16 12 -17 -3 -4 -10 7 -18 15 -18 17 0 8 8 3 21 -13z m-3336
-23 c9 -16 13 -30 11 -30 -3 0 -12 14 -21 30 -9 17 -13 30 -11 30 3 0 12 -13
21 -30z m830 0 c-3 -5 -23 -9 -43 -9 l-37 2 40 7 c22 4 41 8 43 9 2 0 0 -3 -3
-9z m142 -30 c1 -22 1 -22 -4 -2 -3 16 -11 22 -33 22 -16 0 -31 4 -34 8 -3 5
12 6 32 3 31 -5 37 -11 39 -31z m613 20 c-6 -11 -13 -20 -16 -20 -2 0 0 9 6
20 6 11 13 20 16 20 2 0 0 -9 -6 -20z m-2362 -56 c112 -67 133 -98 113 -166
-8 -24 -30 -59 -52 -82 -35 -34 -43 -38 -76 -33 -46 8 -215 108 -237 141 -29
45 -16 108 32 160 57 60 91 57 220 -20z m1649 60 c-3 -3 -12 -4 -19 -1 -8 3
-5 6 6 6 11 1 17 -2 13 -5z m2100 -14 c39 -23 73 -86 73 -134 0 -48 -34 -82
-139 -142 -126 -72 -180 -62 -228 42 -29 65 -26 94 18 133 35 32 202 121 227
121 9 0 31 -9 49 -20z m633 17 c0 -2 -10 -12 -22 -23 l-23 -19 19 23 c18 21
26 27 26 19z m-2863 -13 c-3 -3 -12 -4 -19 -1 -8 3 -5 6 6 6 11 1 17 -2 13 -5z
m-2381 -36 l29 -33 -32 29 c-31 28 -38 36 -30 36 2 0 16 -15 33 -32z m2331 26
c-3 -3 -12 -4 -19 -1 -8 3 -5 6 6 6 11 1 17 -2 13 -5z m1298 -24 c-9 -16 -18
-30 -21 -30 -2 0 2 14 11 30 9 17 18 30 21 30 2 0 -2 -13 -11 -30z m-1535 0
c6 -11 8 -20 6 -20 -3 0 -10 9 -16 20 -6 11 -8 20 -6 20 3 0 10 -9 16 -20z
m185 10 c-11 -5 -27 -9 -35 -9 -9 0 -8 4 5 9 11 5 27 9 35 9 9 0 8 -4 -5 -9z
m713 3 c-10 -2 -28 -2 -40 0 -13 2 -5 4 17 4 22 1 32 -1 23 -4z m195 0 c-7 -2
-21 -2 -30 0 -10 3 -4 5 12 5 17 0 24 -2 18 -5z m-275 -10 c-10 -2 -28 -2 -40
0 -13 2 -5 4 17 4 22 1 32 -1 23 -4z m-1223 -43 c9 -16 13 -30 11 -30 -3 0
-12 14 -21 30 -9 17 -13 30 -11 30 3 0 12 -13 21 -30z m505 20 c-8 -5 -19 -10
-25 -10 -5 0 -3 5 5 10 8 5 20 10 25 10 6 0 3 -5 -5 -10z m407 -12 c-3 -8 -6
-5 -6 6 -1 11 2 17 5 13 3 -3 4 -12 1 -19z m200 16 c-3 -3 -12 -4 -19 -1 -8 3
-5 6 6 6 11 1 17 -2 13 -5z m-60 -10 c-3 -3 -12 -4 -19 -1 -8 3 -5 6 6 6 11 1
17 -2 13 -5z m-612 -22 c-3 -3 -11 0 -18 7 -9 10 -8 11 6 5 10 -3 15 -9 12
-12z m302 -12 c3 -45 22 -80 55 -101 53 -33 185 -22 368 31 132 39 150 42 220
36 94 -8 133 -15 144 -26 10 -9 -20 -93 -65 -182 -37 -73 -61 -137 -54 -147 5
-9 135 10 303 45 195 40 462 32 462 -14 0 -4 -28 -26 -62 -49 -74 -48 -196
-169 -239 -235 -41 -63 -47 -105 -19 -141 39 -49 74 -60 180 -57 254 8 305 6
308 -12 5 -24 -64 -96 -117 -123 -25 -12 -81 -37 -123 -55 -85 -35 -158 -83
-158 -103 0 -18 47 -61 90 -82 60 -31 251 -31 397 -1 78 16 112 17 139 3 16
-8 52 -18 79 -22 78 -10 81 -12 59 -37 -11 -11 -72 -67 -137 -124 -133 -117
-156 -128 -367 -164 -153 -26 -211 -44 -262 -83 -34 -26 -43 -40 -43 -63 0
-25 7 -33 50 -56 45 -24 151 -58 228 -73 34 -7 34 -16 -1 -90 -75 -156 -275
-294 -429 -295 -62 0 -147 17 -187 37 -26 14 -28 14 -22 -2 3 -9 6 -20 6 -25
0 -5 25 -37 55 -72 30 -34 55 -69 55 -75 0 -8 -14 -13 -37 -14 -21 0 -45 -2
-53 -4 -132 -32 -279 -45 -307 -27 -14 9 -33 56 -33 81 0 44 150 171 203 171
23 0 22 17 -2 25 -11 3 -33 21 -49 39 l-29 34 -14 -32 c-12 -27 -26 -35 -109
-64 -88 -31 -286 -86 -355 -98 -140 -25 -196 -30 -378 -33 -223 -3 -228 -2
-209 48 10 29 149 89 216 93 67 4 57 18 -13 18 -41 0 -95 -11 -173 -36 -122
-40 -144 -42 -370 -30 -173 8 -257 46 -392 175 -77 74 -111 135 -101 181 6 26
11 30 39 30 23 0 41 -9 61 -30 59 -61 182 -82 308 -51 85 21 81 33 -9 30 -74
-2 -85 0 -169 38 -114 52 -163 65 -239 64 -33 0 -66 5 -73 11 -23 19 -16 76
13 105 22 22 31 25 70 19 24 -3 86 -28 138 -56 114 -61 148 -63 285 -19 115
37 191 40 276 10 74 -26 144 -73 215 -144 30 -30 75 -71 99 -92 42 -34 48 -36
90 -30 39 6 61 10 79 14 11 3 -64 77 -152 149 -110 91 -135 118 -136 144 0 11
-12 20 -33 26 -35 10 -171 7 -189 -4 -5 -3 -16 2 -24 12 -14 18 -15 18 -9 -3
6 -20 3 -23 -23 -23 -16 0 -72 -9 -125 -20 -116 -24 -177 -27 -234 -10 -38 12
-43 17 -43 42 0 33 -10 36 -28 8 -13 -21 -13 -21 -61 5 -77 42 -111 78 -111
118 0 18 6 41 13 51 10 14 17 15 41 6 34 -13 48 -4 23 15 -18 13 -18 14 2 34
27 27 51 27 51 0 0 -11 5 -17 10 -14 6 3 10 15 10 25 0 17 3 18 33 8 37 -12
137 -84 137 -98 0 -24 39 -29 131 -14 130 21 198 43 217 73 20 30 21 105 3
199 -16 83 -29 78 -31 -12 0 -34 -4 -79 -8 -100 -6 -35 -11 -40 -52 -52 -89
-27 -203 -46 -236 -39 -44 8 -91 48 -99 85 -7 33 9 64 85 169 32 43 40 63 40
95 l-1 41 -19 -53 c-19 -53 -90 -161 -129 -196 -21 -19 -21 -19 -21 11 0 17 9
50 20 74 40 88 25 191 -53 375 -48 113 -61 166 -54 225 11 94 44 116 120 84
57 -24 99 -19 130 13 15 16 54 89 87 162 63 139 101 200 125 200 8 0 29 -19
46 -42 17 -24 35 -42 40 -40 5 1 49 28 97 59 170 110 342 174 457 170 56 -2
60 -4 62 -27z m253 20 c-14 -4 -34 -8 -45 -8 -16 0 -15 2 5 8 14 4 34 8 45 8
16 0 15 -2 -5 -8z m900 -40 c-6 -11 -13 -20 -16 -20 -2 0 0 9 6 20 6 11 13 20
16 20 2 0 0 -9 -6 -20z m-1870 -3 c0 -2 -19 -21 -42 -42 l-43 -40 40 43 c36
39 45 47 45 39z m3647 -3 c-3 -3 -12 -4 -19 -1 -8 3 -5 6 6 6 11 1 17 -2 13
-5z m-5212 -34 c10 -11 16 -20 13 -20 -3 0 -13 9 -23 20 -10 11 -16 20 -13 20
3 0 13 -9 23 -20z m3400 -20 c-9 -16 -18 -30 -21 -30 -2 0 2 14 11 30 9 17 18
30 21 30 2 0 -2 -13 -11 -30z m1562 -6 c-3 -3 -12 -4 -19 -1 -8 3 -5 6 6 6 11
1 17 -2 13 -5z m-5160 -10 c-3 -3 -12 -4 -19 -1 -8 3 -5 6 6 6 11 1 17 -2 13
-5z m5453 2 c0 -2 -8 -10 -17 -17 -16 -13 -17 -12 -4 4 13 16 21 21 21 13z
m-5353 -22 c-3 -3 -12 -4 -19 -1 -8 3 -5 6 6 6 11 1 17 -2 13 -5z m1583 3 c0
-2 -10 -12 -22 -23 l-23 -19 19 23 c18 21 26 27 26 19z m1880 -27 c-6 -11 -13
-20 -16 -20 -2 0 0 9 6 20 6 11 13 20 16 20 2 0 0 -9 -6 -20z m-2951 -57 c28
-9 51 -21 51 -27 0 -24 -34 -96 -45 -96 -7 0 -29 7 -48 15 -50 21 -77 19 -77
-4 0 -14 31 -30 146 -75 80 -31 150 -53 155 -50 22 13 6 37 -38 56 -27 11 -49
22 -51 23 -2 2 36 97 42 103 9 9 90 -34 111 -60 31 -37 34 -102 5 -158 -42
-82 -91 -88 -244 -31 -149 56 -175 70 -191 102 -31 59 -7 152 51 198 32 25 65
26 133 4z m1001 -13 c-6 -11 -13 -20 -16 -20 -2 0 0 9 6 20 6 11 13 20 16 20
2 0 0 -9 -6 -20z m3211 -17 c62 -52 78 -139 34 -191 -28 -34 -194 -102 -248
-102 -43 0 -75 24 -98 74 -25 54 -24 107 1 139 17 22 106 62 220 100 34 12 60
6 91 -20z m-1162 13 c-2 -2 -33 -6 -69 -9 -39 -3 -55 -2 -40 3 25 8 117 13
109 6z m205 -55 c4 -5 -3 -7 -14 -4 -23 6 -26 13 -6 13 8 0 17 -4 20 -9z
m1609 -8 c-7 -2 -19 -2 -25 0 -7 3 -2 5 12 5 14 0 19 -2 13 -5z m-76 -9 c-3
-3 -12 -4 -19 -1 -8 3 -5 6 6 6 11 1 17 -2 13 -5z m-60 -10 c-3 -3 -12 -4 -19
-1 -8 3 -5 6 6 6 11 1 17 -2 13 -5z m-3786 -31 c-12 -20 -14 -14 -5 12 4 9 9
14 11 11 3 -2 0 -13 -6 -23z m3996 -15 c-3 -8 -6 -5 -6 6 -1 11 2 17 5 13 3
-3 4 -12 1 -19z m-5714 -13 c-3 -9 -8 -14 -10 -11 -3 3 -2 9 2 15 9 16 15 13
8 -4z m95 8 c-10 -2 -26 -2 -35 0 -10 3 -2 5 17 5 19 0 27 -2 18 -5z m95 -10
c-7 -2 -21 -2 -30 0 -10 3 -4 5 12 5 17 0 24 -2 18 -5z m1514 -15 c-3 -8 -6
-5 -6 6 -1 11 2 17 5 13 3 -3 4 -12 1 -19z m2433 -11 c0 -1 -30 -32 -67 -67
l-68 -65 65 68 c60 62 70 72 70 64z m-2633 -13 c-3 -3 -12 -4 -19 -1 -8 3 -5
6 6 6 11 1 17 -2 13 -5z m190 -29 c-4 -8 -14 -14 -24 -14 -17 1 -17 2 0 6 9 2
17 12 17 20 0 9 3 14 6 10 4 -3 4 -13 1 -22z m-247 11 c0 -2 -8 -10 -17 -17
-16 -13 -17 -12 -4 4 13 16 21 21 21 13z m193 -13 c-7 -2 -19 -2 -25 0 -7 3
-2 5 12 5 14 0 19 -2 13 -5z m3555 -113 c6 -25 8 -48 4 -51 -4 -4 -98 -30
-210 -58 -111 -29 -209 -54 -216 -57 -10 -4 -18 10 -27 50 -7 31 -10 58 -8 60
2 2 96 27 209 55 113 29 210 54 215 56 15 4 21 -6 33 -55z m269 38 c-3 -8 -6
-5 -6 6 -1 11 2 17 5 13 3 -3 4 -12 1 -19z m-4070 -10 c-3 -8 -6 -5 -6 6 -1
11 2 17 5 13 3 -3 4 -12 1 -19z m2613 -12 c0 -2 -8 -10 -17 -17 -16 -13 -17
-12 -4 4 13 16 21 21 21 13z m1474 -12 c3 -8 2 -12 -4 -9 -6 3 -10 10 -10 16
0 14 7 11 14 -7z m104 -1 c-10 -2 -28 -2 -40 0 -13 2 -5 4 17 4 22 1 32 -1 23
-4z m-1635 -72 c-16 -27 -30 -48 -32 -46 -4 5 48 95 54 95 3 0 -7 -22 -22 -49z
m-3768 10 c-3 -6 -11 -11 -16 -11 -5 0 -4 6 3 14 14 16 24 13 13 -3z m-147 2
c-10 -2 -28 -2 -40 0 -13 2 -5 4 17 4 22 1 32 -1 23 -4z m1359 -80 c-3 -10 -5
-4 -5 12 0 17 2 24 5 18 2 -7 2 -21 0 -30z m2520 -15 c-3 -8 -6 -5 -6 6 -1 11
2 17 5 13 3 -3 4 -12 1 -19z m-2504 -73 c4 -39 3 -50 -2 -30 -9 31 -14 102 -7
94 2 -2 6 -31 9 -64z m2850 38 c-13 -2 -35 -2 -50 0 -16 2 -5 4 22 4 28 0 40
-2 28 -4z m1264 -15 c-3 -8 -6 -5 -6 6 -1 11 2 17 5 13 3 -3 4 -12 1 -19z
m-1554 5 c-7 -2 -21 -2 -30 0 -10 3 -4 5 12 5 17 0 24 -2 18 -5z m120 0 c-18
-2 -48 -2 -65 0 -18 2 -4 4 32 4 36 0 50 -2 33 -4z m282 -13 c3 -6 -1 -7 -9
-4 -18 7 -21 14 -7 14 6 0 13 -4 16 -10z m20 -48 c-17 -15 -18 -15 -6 0 7 9 9
23 5 30 -6 10 -4 11 7 0 11 -10 10 -15 -6 -30z m1378 11 c-13 -2 -33 -2 -45 0
-13 2 -3 4 22 4 25 0 35 -2 23 -4z m-5636 -35 c-3 -8 -6 -5 -6 6 -1 11 2 17 5
13 3 -3 4 -12 1 -19z m5695 -50 c-6 -6 -7 0 -4 19 5 21 7 23 10 9 2 -10 0 -22
-6 -28z m-5854 15 c-10 -2 -26 -2 -35 0 -10 3 -2 5 17 5 19 0 27 -2 18 -5z
m1443 -26 c-10 -9 -11 -8 -5 6 3 10 9 15 12 12 3 -3 0 -11 -7 -18z m-21 -10
c0 -2 -10 -12 -22 -23 l-23 -19 19 23 c18 21 26 27 26 19z m-1518 -32 c3 -13
1 -22 -3 -19 -9 5 -13 44 -5 44 2 0 6 -11 8 -25z m1622 -25 c17 -43 21 -79 9
-81 -77 -8 -90 -40 -48 -124 36 -73 31 -111 -8 -67 -48 53 -73 180 -47 246 11
31 45 66 64 66 8 0 21 -18 30 -40z m2690 -43 c-43 -45 -81 -81 -83 -79 -5 3
150 162 158 162 3 0 -31 -37 -75 -83z m1409 -30 c31 -4 31 -5 -3 -3 -28 1 -35
5 -36 21 -1 14 0 15 3 3 3 -10 17 -19 36 -21z m-4286 -29 c-3 -7 -5 -2 -5 12
0 14 2 19 5 13 2 -7 2 -19 0 -25z m4390 16 c-3 -3 -12 -4 -19 -1 -8 3 -5 6 6
6 11 1 17 -2 13 -5z m-5600 -36 c-3 -7 -5 -2 -5 12 0 14 2 19 5 13 2 -7 2 -19
0 -25z m5680 26 c-3 -3 -12 -4 -19 -1 -8 3 -5 6 6 6 11 1 17 -2 13 -5z m-4254
-39 c4 -8 2 -17 -4 -20 -15 -10 -49 5 -49 21 0 19 46 18 53 -1z m2954 9 c-3
-3 -12 -4 -19 -1 -8 3 -5 6 6 6 11 1 17 -2 13 -5z m-59 -11 c-16 -2 -40 -2
-55 0 -16 2 -3 4 27 4 30 0 43 -2 28 -4z m-4335 -10 c-7 -2 -19 -2 -25 0 -7 3
-2 5 12 5 14 0 19 -2 13 -5z m-76 -9 c-3 -3 -12 -4 -19 -1 -8 3 -5 6 6 6 11 1
17 -2 13 -5z m-60 -10 c-3 -3 -12 -4 -19 -1 -8 3 -5 6 6 6 11 1 17 -2 13 -5z
m5641 -91 c-11 -3 -18 -15 -19 -31 -1 -18 -3 -21 -6 -9 -7 27 4 47 24 46 17
-1 17 -2 1 -6z m-5500 -95 c-2 -26 -8 -43 -18 -45 -12 -4 -13 -3 -1 5 9 6 12
22 9 46 -2 20 0 36 5 36 4 0 7 -19 5 -42z m5539 26 c-3 -3 -12 -4 -19 -1 -8 3
-5 6 6 6 11 1 17 -2 13 -5z m150 -150 c-3 -3 -12 -4 -19 -1 -8 3 -5 6 6 6 11
1 17 -2 13 -5z m-60 -10 c-3 -3 -12 -4 -19 -1 -8 3 -5 6 6 6 11 1 17 -2 13 -5z
m-74 -11 c-7 -2 -21 -2 -30 0 -10 3 -4 5 12 5 17 0 24 -2 18 -5z m-1093 -17
c0 -2 -8 -10 -17 -17 -16 -13 -17 -12 -4 4 13 16 21 21 21 13z m-4603 -32 c-3
-3 -12 -4 -19 -1 -8 3 -5 6 6 6 11 1 17 -2 13 -5z m80 -10 c-3 -3 -12 -4 -19
-1 -8 3 -5 6 6 6 11 1 17 -2 13 -5z m5811 -120 c-3 -14 -5 -12 -10 9 -3 19 -2
25 4 19 6 -6 8 -18 6 -28z m-4645 -18 c-10 -13 -20 -22 -22 -20 -4 4 29 44 36
44 2 0 -4 -11 -14 -24z m-1311 -43 c-3 -16 -7 -22 -10 -15 -4 13 4 42 11 42 2
0 2 -12 -1 -27z m5886 0 c-10 -2 -26 -2 -35 0 -10 3 -2 5 17 5 19 0 27 -2 18
-5z m-170 -10 c-10 -2 -26 -2 -35 0 -10 3 -2 5 17 5 19 0 27 -2 18 -5z m-61
-25 c-3 -8 -6 -5 -6 6 -1 11 2 17 5 13 3 -3 4 -12 1 -19z m-4285 -70 c46 -59
28 -45 -32 25 -29 34 -41 51 -26 37 15 -14 41 -42 58 -62z m2870 75 c-10 -4
-8 -12 10 -32 l23 -26 -27 24 c-27 23 -29 42 -5 40 8 0 8 -2 -1 -6z m-4139
-40 c-13 -2 -33 -2 -45 0 -13 2 -3 4 22 4 25 0 35 -2 23 -4z m4246 -49 c14
-12 -19 -1 -35 12 -18 14 -18 14 6 3 14 -6 27 -13 29 -15z m-4092 -6 c-3 -8
-6 -5 -6 6 -1 11 2 17 5 13 3 -3 4 -12 1 -19z m1183 -113 c0 -5 -5 -3 -10 5
-5 8 -10 20 -10 25 0 6 5 3 10 -5 5 -8 10 -19 10 -25z m2921 17 c-5 -10 -18
-25 -27 -33 -11 -9 -9 -2 6 19 26 35 36 42 21 14z m1297 -29 c-10 -2 -26 -2
-35 0 -10 3 -2 5 17 5 19 0 27 -2 18 -5z m-4199 -43 c0 -10 -3 -8 -9 5 -12 27
-12 43 0 25 5 -8 9 -22 9 -30z m4379 33 c-10 -2 -28 -2 -40 0 -13 2 -5 4 17 4
22 1 32 -1 23 -4z m-1518 -17 c0 -2 -8 -10 -17 -17 -16 -13 -17 -12 -4 4 13
16 21 21 21 13z m-4042 -43 c-10 -2 -26 -2 -35 0 -10 3 -2 5 17 5 19 0 27 -2
18 -5z m4002 -6 c0 -1 -30 -32 -67 -67 l-68 -65 65 68 c60 62 70 72 70 64z
m-2796 -23 c3 -8 2 -12 -4 -9 -6 3 -10 10 -10 16 0 14 7 11 14 -7z m27 -41
c13 -16 12 -17 -3 -4 -10 7 -18 15 -18 17 0 8 8 3 21 -13z m55 -45 l29 -33
-32 29 c-31 28 -38 36 -30 36 2 0 16 -15 33 -32z m2574 -21 c0 -2 -10 -12 -22
-23 l-23 -19 19 23 c18 21 26 27 26 19z m-2532 -42 c-3 -3 -9 2 -12 12 -6 14
-5 15 5 6 7 -7 10 -15 7 -18z m3989 9 c-3 -3 -12 -4 -19 -1 -8 3 -5 6 6 6 11
1 17 -2 13 -5z m-1507 -8 c0 -2 -8 -10 -17 -17 -16 -13 -17 -12 -4 4 13 16 21
21 21 13z m1583 -3 c-7 -2 -21 -2 -30 0 -10 3 -4 5 12 5 17 0 24 -2 18 -5z
m-5556 -25 c-3 -8 -6 -5 -6 6 -1 11 2 17 5 13 3 -3 4 -12 1 -19z m5630 16 c-3
-3 -12 -4 -19 -1 -8 3 -5 6 6 6 11 1 17 -2 13 -5z m-4123 -20 c3 -8 2 -12 -4
-9 -6 3 -10 10 -10 16 0 14 7 11 14 -7z m2411 -10 c-26 -20 -55 -36 -55 -30 0
5 63 46 70 46 3 -1 -4 -8 -15 -16z m1499 0 c3 -8 2 -12 -4 -9 -6 3 -10 10 -10
16 0 14 7 11 14 -7z m-5187 -20 c-3 -3 -12 -4 -19 -1 -8 3 -5 6 6 6 11 1 17
-2 13 -5z m-60 -10 c-3 -3 -12 -4 -19 -1 -8 3 -5 6 6 6 11 1 17 -2 13 -5z
m1408 -14 c10 -11 16 -20 13 -20 -3 0 -13 9 -23 20 -10 11 -16 20 -13 20 3 0
13 -9 23 -20z m-1487 3 c-10 -2 -28 -2 -40 0 -13 2 -5 4 17 4 22 1 32 -1 23
-4z m1548 -41 c-10 -2 -22 0 -28 6 -6 6 0 7 19 4 21 -5 23 -7 9 -10z m2060
-32 c0 -12 -4 -16 -9 -11 -5 5 -6 14 -3 20 10 15 12 14 12 -9z m-1831 -48 c-3
-3 -11 0 -18 7 -9 10 -8 11 6 5 10 -3 15 -9 12 -12z m1855 -2 c6 -11 8 -20 6
-20 -3 0 -10 9 -16 20 -6 11 -8 20 -6 20 3 0 10 -9 16 -20z m-1250 -30 c18
-12 2 -12 -25 0 -13 6 -15 9 -5 9 8 0 22 -4 30 -9z m-2350 -4 c0 -2 -8 -10
-17 -17 -16 -13 -17 -12 -4 4 13 16 21 21 21 13z m5347 -2 c-3 -3 -12 -4 -19
-1 -8 3 -5 6 6 6 11 1 17 -2 13 -5z m-3512 -34 c-9 -16 -18 -30 -21 -30 -2 0
2 14 11 30 9 17 18 30 21 30 2 0 -2 -13 -11 -30z m773 19 c119 1 214 0 211 -3
-2 -3 -100 -6 -217 -7 -163 -1 -216 1 -225 11 -9 10 -9 11 2 5 7 -4 111 -7
229 -6z m1037 -29 c9 -16 13 -30 11 -30 -3 0 -12 14 -21 30 -9 17 -13 30 -11
30 3 0 12 -13 21 -30z m1802 24 c-3 -3 -12 -4 -19 -1 -8 3 -5 6 6 6 11 1 17
-2 13 -5z m-2592 -14 c3 -6 -1 -7 -9 -4 -18 7 -21 14 -7 14 6 0 13 -4 16 -10z
m-605 -30 c-6 -11 -13 -20 -16 -20 -2 0 0 9 6 20 6 11 13 20 16 20 2 0 0 -9
-6 -20z m2991 3 c13 -16 12 -17 -3 -4 -17 13 -22 21 -14 21 2 0 10 -8 17 -17z
m-3441 -33 c-6 -11 -13 -20 -16 -20 -2 0 0 9 6 20 6 11 13 20 16 20 2 0 0 -9
-6 -20z m1108 -5 c-3 -3 -9 2 -12 12 -6 14 -5 15 5 6 7 -7 10 -15 7 -18z
m-2871 9 c-3 -3 -12 -4 -19 -1 -8 3 -5 6 6 6 11 1 17 -2 13 -5z m219 -32 c-17
-16 -18 -16 -5 5 7 12 15 20 18 17 3 -2 -3 -12 -13 -22z m1964 8 c-6 -11 -13
-20 -16 -20 -2 0 0 9 6 20 6 11 13 20 16 20 2 0 0 -9 -6 -20z m1034 1 c3 -5
-70 -8 -167 -8 l-172 1 160 6 c88 3 163 7 167 8 4 1 9 -2 12 -7z m441 -21 c9
-16 13 -30 11 -30 -3 0 -12 14 -21 30 -9 17 -13 30 -11 30 3 0 12 -13 21 -30z
m1626 13 c13 -16 12 -17 -3 -4 -10 7 -18 15 -18 17 0 8 8 3 21 -13z m-5101
-27 c0 -2 -8 -10 -17 -17 -16 -13 -17 -12 -4 4 13 16 21 21 21 13z m1535 -26
c-9 -16 -18 -30 -21 -30 -2 0 2 14 11 30 9 17 18 30 21 30 2 0 -2 -13 -11 -30z
m435 10 c-6 -11 -13 -20 -16 -20 -2 0 0 9 6 20 6 11 13 20 16 20 2 0 0 -9 -6
-20z m3196 -12 l29 -33 -32 29 c-31 28 -38 36 -30 36 2 0 16 -15 33 -32z
m-2096 2 c6 -11 8 -20 6 -20 -3 0 -10 9 -16 20 -6 11 -8 20 -6 20 3 0 10 -9
16 -20z m-3120 -13 c0 -2 -10 -12 -22 -23 l-23 -19 19 23 c18 21 26 27 26 19z
m1990 -27 c-6 -11 -13 -20 -16 -20 -2 0 0 9 6 20 6 11 13 20 16 20 2 0 0 -9
-6 -20z m1585 -10 c9 -16 13 -30 11 -30 -3 0 -12 14 -21 30 -9 17 -13 30 -11
30 3 0 12 -13 21 -30z m-420 -10 c9 -16 13 -30 11 -30 -3 0 -12 14 -21 30 -9
17 -13 30 -11 30 3 0 12 -13 21 -30z m-1610 -10 c-9 -16 -18 -30 -21 -30 -2 0
2 14 11 30 9 17 18 30 21 30 2 0 -2 -13 -11 -30z m-1354 -27 c13 -16 12 -17
-3 -4 -10 7 -18 15 -18 17 0 8 8 3 21 -13z m4754 -3 c10 -11 16 -20 13 -20 -3
0 -13 9 -23 20 -10 11 -16 20 -13 20 3 0 13 -9 23 -20z m-1755 -20 c6 -11 8
-20 6 -20 -3 0 -10 9 -16 20 -6 11 -8 20 -6 20 3 0 10 -9 16 -20z m-3217 -37
c-7 -2 -19 -2 -25 0 -7 3 -2 5 12 5 14 0 19 -2 13 -5z m167 -78 c-41 -41 -77
-75 -79 -75 -3 0 28 34 69 75 41 41 77 75 79 75 3 0 -28 -34 -69 -75z m4960
-12 c0 -8 -9 0 -50 45 l-45 47 48 -45 c26 -24 47 -45 47 -47z m-1870 57 c6
-11 8 -20 6 -20 -3 0 -10 9 -16 20 -6 11 -8 20 -6 20 3 0 10 -9 16 -20z
m-1340 -20 c-6 -11 -13 -20 -16 -20 -2 0 0 9 6 20 6 11 13 20 16 20 2 0 0 -9
-6 -20z m1370 -30 c6 -11 8 -20 6 -20 -3 0 -10 9 -16 20 -6 11 -8 20 -6 20 3
0 10 -9 16 -20z m1560 16 c0 -2 -7 -7 -16 -10 -8 -3 -12 -2 -9 4 6 10 25 14
25 6z m-2960 -36 c-6 -11 -13 -20 -16 -20 -2 0 0 9 6 20 6 11 13 20 16 20 2 0
0 -9 -6 -20z m2923 -5 c-3 -9 -8 -14 -10 -11 -3 3 -2 9 2 15 9 16 15 13 8 -4z
m-4518 -55 c-3 -5 -12 -10 -18 -10 -7 0 -6 4 3 10 19 12 23 12 15 0z m4810 0
c-3 -5 -12 -10 -18 -10 -7 0 -6 4 3 10 19 12 23 12 15 0z m-1587 -75 c12 -25
22 -48 22 -50 0 -2 -12 -11 -27 -19 -57 -31 -57 -30 -34 -74 27 -52 34 -56 70
-37 17 8 35 15 40 15 9 0 51 -69 51 -83 0 -2 -18 -12 -40 -22 -22 -10 -40 -20
-40 -21 0 -12 56 -114 62 -114 5 0 26 9 48 20 22 11 42 20 44 20 7 0 46 -76
46 -88 0 -4 -49 -34 -110 -65 l-109 -58 -27 53 c-14 29 -62 121 -106 205 l-79
152 -30 -11 c-22 -8 -28 -15 -24 -27 9 -22 145 -413 145 -417 0 -5 -131 -46
-135 -42 -2 2 -33 87 -69 188 -89 255 -81 239 -107 233 -18 -5 -20 -11 -15
-42 3 -20 9 -52 12 -72 l6 -36 -46 -6 c-25 -4 -57 -9 -70 -13 -23 -5 -25 -2
-36 53 -6 32 -15 68 -20 81 -11 25 -38 29 -46 7 -10 -24 53 -366 70 -383 28
-28 39 -4 33 72 l-6 72 67 10 c37 6 68 10 70 9 1 -1 7 -30 13 -64 11 -71 -1
-112 -46 -154 -58 -54 -191 -63 -242 -16 -37 35 -48 66 -79 241 -15 87 -29
156 -31 154 -2 -2 -24 -82 -49 -177 -25 -96 -51 -198 -60 -227 l-15 -52 -49 0
c-28 0 -50 2 -50 5 0 10 151 579 156 587 3 4 27 8 54 8 49 0 49 0 40 -25 -6
-16 -6 -25 0 -25 6 0 10 4 10 9 0 32 142 78 195 63 20 -6 37 -5 50 4 11 6 74
31 140 54 66 23 165 65 220 94 55 29 102 54 106 55 3 0 15 -19 27 -44z m1388
13 l29 -33 -32 29 c-18 17 -33 31 -33 33 0 8 8 1 36 -29z m-4516 19 c0 -2 -12
-14 -27 -28 l-28 -24 24 28 c23 25 31 32 31 24z m-255 -25 c-3 -3 -11 0 -18 7
-9 10 -8 11 6 5 10 -3 15 -9 12 -12z m1721 -40 c82 -41 117 -71 128 -109 l7
-22 32 19 c66 41 199 9 239 -57 16 -26 17 -26 18 -6 0 12 3 24 8 26 11 7 172
-11 220 -24 63 -17 82 -47 82 -128 -1 -157 -30 -201 -130 -201 l-58 0 -6 -37
c-3 -21 -8 -73 -12 -115 l-6 -77 -52 5 c-28 3 -61 7 -73 10 -24 5 -24 -4 1
227 7 59 10 107 7 107 -4 0 -16 -39 -29 -87 -44 -173 -86 -219 -190 -209 -96
9 -172 74 -172 148 0 19 34 159 56 231 5 16 3 17 -16 7 -12 -6 -33 -9 -47 -5
l-25 6 21 -27 c12 -15 21 -38 21 -51 0 -29 -89 -223 -102 -223 -16 0 -108 50
-108 59 0 4 20 51 45 104 49 106 52 119 30 137 -13 11 -23 -4 -70 -104 -30
-64 -59 -116 -65 -116 -9 0 -108 46 -118 55 -3 3 174 388 219 477 22 43 18 44
145 -20z m2834 4 c0 -2 -8 -10 -17 -17 -16 -13 -17 -12 -4 4 13 16 21 21 21
13z m-4360 -9 c0 -2 -10 -12 -22 -23 l-23 -19 19 23 c18 21 26 27 26 19z
m4631 -14 c13 -16 12 -17 -3 -4 -10 7 -18 15 -18 17 0 8 8 3 21 -13z m-4680
-140 c13 -16 12 -17 -3 -4 -10 7 -18 15 -18 17 0 8 8 3 21 -13z m4213 -69 c3
-8 2 -12 -4 -9 -6 3 -10 10 -10 16 0 14 7 11 14 -7z m-3789 -34 c10 -11 16
-20 13 -20 -3 0 -13 9 -23 20 -10 11 -16 20 -13 20 3 0 13 -9 23 -20z m-232
-109 c-2 -3 -16 8 -31 24 l-27 28 31 -24 c17 -13 30 -26 27 -28z m3938 -18
c13 -16 12 -17 -3 -4 -10 7 -18 15 -18 17 0 8 8 3 21 -13z m-3551 -17 c0 -2
-8 -10 -17 -17 -16 -13 -17 -12 -4 4 13 16 21 21 21 13z m3601 -23 c13 -16 12
-17 -3 -4 -10 7 -18 15 -18 17 0 8 8 3 21 -13z m-3651 -17 c0 -2 -8 -10 -17
-17 -16 -13 -17 -12 -4 4 13 16 21 21 21 13z m3790 -30 c0 -2 -8 -10 -17 -17
-16 -13 -17 -12 -4 4 13 16 21 21 21 13z m-3976 -32 c3 -8 2 -12 -4 -9 -6 3
-10 10 -10 16 0 14 7 11 14 -7z m51 -42 c-3 -3 -11 0 -18 7 -9 10 -8 11 6 5
10 -3 15 -9 12 -12z m395 5 c0 -1 -30 -32 -67 -67 l-68 -65 65 68 c60 62 70
72 70 64z m3215 -67 c10 -11 16 -20 13 -20 -3 0 -13 9 -23 20 -10 11 -16 20
-13 20 3 0 13 -9 23 -20z m-304 -47 c13 -16 12 -17 -3 -4 -17 13 -22 21 -14
21 2 0 10 -8 17 -17z m-2692 -16 c-2 -1 -13 -9 -24 -17 -19 -14 -19 -14 -6 3
7 9 18 17 24 17 6 0 8 -1 6 -3z m2844 -147 c-2 -2 -29 23 -61 55 l-57 59 60
-54 c34 -30 59 -57 58 -60z m-2893 96 c0 -2 -8 -10 -17 -17 -16 -13 -17 -12
-4 4 13 16 21 21 21 13z m2501 -23 c13 -16 12 -17 -3 -4 -17 13 -22 21 -14 21
2 0 10 -8 17 -17z m-2588 -75 c-35 -34 -45 -40 -55 -30 -11 11 -10 12 2 7 10
-3 29 8 50 30 19 19 36 35 39 35 3 0 -13 -19 -36 -42z m2524 20 c-3 -8 -6 -5
-6 6 -1 11 2 17 5 13 3 -3 4 -12 1 -19z m144 -55 c13 -16 12 -17 -3 -4 -10 7
-18 15 -18 17 0 8 8 3 21 -13z m-2264 -35 c-3 -8 -6 -5 -6 6 -1 11 2 17 5 13
3 -3 4 -12 1 -19z m2140 0 c-3 -8 -6 -5 -6 6 -1 11 2 17 5 13 3 -3 4 -12 1
-19z m260 0 c-3 -8 -6 -5 -6 6 -1 11 2 17 5 13 3 -3 4 -12 1 -19z m-510 -20
c-3 -8 -6 -5 -6 6 -1 11 2 17 5 13 3 -3 4 -12 1 -19z m418 2 c10 -11 16 -20
13 -20 -3 0 -13 9 -23 20 -10 11 -16 20 -13 20 3 0 13 -9 23 -20z m-590 0 c3
-6 -1 -7 -9 -4 -18 7 -21 14 -7 14 6 0 13 -4 16 -10z m-1728 -42 c-3 -8 -6 -5
-6 6 -1 11 2 17 5 13 3 -3 4 -12 1 -19z m2160 0 c-3 -8 -6 -5 -6 6 -1 11 2 17
5 13 3 -3 4 -12 1 -19z m208 12 c-3 -5 -14 -10 -23 -9 -14 0 -13 2 3 9 27 11
27 11 20 0z m-1868 -157 c-2 -32 -3 -8 -3 52 0 61 1 87 3 58 2 -29 2 -78 0
-110z m-677 132 c-7 -8 -17 -15 -23 -15 -6 0 -2 7 9 15 25 19 30 19 14 0z
m427 -37 c-2 -13 -4 -5 -4 17 -1 22 1 32 4 23 2 -10 2 -28 0 -40z m1176 35
c-8 -3 -14 -26 -15 -56 l-1 -52 -4 44 c-5 50 1 71 19 70 10 0 10 -2 1 -6z
m-710 -10 c-7 -2 -19 -2 -25 0 -7 3 -2 5 12 5 14 0 19 -2 13 -5z m944 -126
c-2 -23 -3 -1 -3 48 0 50 1 68 3 42 2 -26 2 -67 0 -90z m250 86 c-3 -10 -5 -2
-5 17 0 19 2 27 5 18 2 -10 2 -26 0 -35z m-670 17 c3 -10 2 -11 -4 -4 -4 7
-17 14 -28 17 -16 5 -15 5 4 4 14 -1 26 -9 28 -17z m-1245 -24 c2 -19 0 -32
-4 -30 -8 5 -12 64 -4 64 2 0 6 -15 8 -34z m2175 12 c-3 -8 -6 -5 -6 6 -1 11
2 17 5 13 3 -3 4 -12 1 -19z m-1010 -40 c-3 -7 -5 -2 -5 12 0 14 2 19 5 13 2
-7 2 -19 0 -25z m-410 -25 c-3 -10 -5 -2 -5 17 0 19 2 27 5 18 2 -10 2 -26 0
-35z m250 15 c-3 -8 -6 -5 -6 6 -1 11 2 17 5 13 3 -3 4 -12 1 -19z m-932 -8
c-3 -5 -12 -10 -18 -10 -7 0 -6 4 3 10 19 12 23 12 15 0z m942 -42 c-3 -8 -6
-5 -6 6 -1 11 2 17 5 13 3 -3 4 -12 1 -19z m140 0 c-3 -8 -6 -5 -6 6 -1 11 2
17 5 13 3 -3 4 -12 1 -19z m250 -50 c-3 -7 -5 -2 -5 12 0 14 2 19 5 13 2 -7 2
-19 0 -25z m460 26 c-3 -3 -12 -4 -19 -1 -8 3 -5 6 6 6 11 1 17 -2 13 -5z
m-1100 -26 c-3 -8 -6 -5 -6 6 -1 11 2 17 5 13 3 -3 4 -12 1 -19z m260 0 c-3
-8 -6 -5 -6 6 -1 11 2 17 5 13 3 -3 4 -12 1 -19z m120 0 c-3 -8 -6 -5 -6 6 -1
11 2 17 5 13 3 -3 4 -12 1 -19z m510 -24 c-3 -3 -12 -4 -19 -1 -8 3 -5 6 6 6
11 1 17 -2 13 -5z m-50 -10 c-3 -3 -12 -4 -19 -1 -8 3 -5 6 6 6 11 1 17 -2 13
-5z m-212 -23 c-3 -6 -14 -10 -23 -10 -15 1 -15 2 1 6 9 2 17 9 17 15 0 6 3 9
6 5 3 -3 3 -10 -1 -16z"/>
<path d="M3447 5343 c-3 -5 -13 -48 -22 -96 -13 -62 -15 -91 -7 -99 7 -7 13
-5 20 8 9 17 42 163 42 185 0 11 -27 12 -33 2z"/>
<path d="M2461 5172 c-16 -29 3 -102 26 -102 13 0 15 8 9 46 -3 25 -10 53 -15
61 -7 14 -10 13 -20 -5z"/>
<path d="M2092 5211 c-20 -12 55 -191 80 -191 10 0 18 3 18 6 0 9 -71 179 -78
186 -4 4 -13 4 -20 -1z"/>
<path d="M1348 4455 c4 -24 54 -75 72 -75 28 0 18 27 -21 61 -52 45 -58 47
-51 14z"/>
<path d="M1030 4266 c0 -8 44 -40 97 -72 111 -65 133 -74 133 -50 0 15 -192
136 -217 136 -7 0 -13 -6 -13 -14z"/>
<path d="M4850 4228 c-103 -61 -124 -78 -111 -91 6 -6 43 9 103 43 103 58 130
78 122 91 -9 16 -28 9 -114 -43z"/>
<path d="M2840 3768 c-86 -27 -104 -40 -245 -183 -126 -128 -167 -155 -233
-155 -50 0 -98 43 -108 96 -9 47 26 99 102 150 79 54 80 64 5 64 -56 0 -64 -3
-100 -36 -50 -44 -65 -88 -59 -173 9 -120 76 -216 163 -232 99 -18 159 15 255
140 79 105 116 134 221 171 48 18 105 45 126 60 35 26 59 34 91 31 7 0 45 -31
84 -68 39 -37 73 -62 75 -56 7 19 -47 95 -110 156 l-59 57 -72 -1 c-42 0 -97
-8 -136 -21z"/>
<path d="M2838 3516 c-114 -41 -220 -140 -283 -265 -24 -48 -54 -96 -67 -109
l-25 -22 -41 39 c-43 42 -130 80 -198 88 -35 5 -43 2 -48 -14 -5 -16 10 -37
71 -96 184 -178 335 -284 466 -327 47 -15 143 -16 179 -2 36 15 106 79 125
115 23 45 19 132 -12 228 -24 76 -35 176 -20 199 3 4 21 11 40 14 27 5 49 1
92 -19 31 -14 58 -23 61 -20 11 10 -24 70 -67 114 -82 84 -178 111 -273 77z
m26 -177 c33 -26 70 -97 92 -178 14 -50 15 -63 4 -76 -11 -14 -15 -14 -36 0
-33 21 -34 19 -13 -22 21 -41 25 -83 8 -83 -5 0 -31 20 -56 44 -49 46 -54 76
-11 76 16 0 19 3 11 11 -31 31 -74 -23 -88 -108 -9 -61 -35 -143 -45 -143 -13
0 -79 39 -132 79 -40 29 -48 40 -48 68 0 62 121 260 200 327 38 31 78 33 114
5z"/>
<path d="M3443 3340 l-23 -9 21 -53 c27 -69 43 -94 77 -115 64 -40 82 -64 82
-112 0 -25 -6 -57 -13 -71 -16 -34 -91 -70 -144 -70 -24 0 -43 -3 -43 -7 0 -5
44 -42 96 -83 103 -80 151 -143 139 -181 -7 -21 -59 -49 -92 -49 -10 0 -57
-22 -106 -50 -84 -47 -196 -96 -241 -106 -43 -10 -126 -7 -156 6 -59 25 -72
86 -45 215 15 69 20 145 10 145 -3 0 -24 -9 -48 -19 -149 -68 -176 -73 -240
-46 -39 16 -107 20 -107 7 0 -13 72 -77 115 -102 62 -36 82 -58 156 -167 87
-130 113 -145 247 -150 113 -4 257 25 350 69 50 23 73 43 114 94 61 79 94 97
171 97 31 -1 57 3 57 8 0 5 -30 66 -66 135 l-66 127 32 28 c56 52 81 136 61
208 -4 14 -32 43 -63 65 -31 23 -75 64 -97 93 -71 92 -119 116 -178 93z"/>
<path d="M1645 2800 c-8 -13 3 -30 21 -30 18 0 18 14 0 29 -10 8 -16 9 -21 1z"/>
<path d="M1554 2778 c-9 -15 27 -41 39 -29 13 13 1 41 -17 41 -8 0 -18 -5 -22
-12z"/>
<path d="M2393 2773 c-7 -2 -13 -14 -13 -25 0 -14 6 -19 23 -16 14 2 22 10 22
22 0 21 -12 28 -32 19z"/>
<path d="M2254 2755 c-10 -25 10 -39 36 -25 26 14 22 34 -8 38 -13 2 -25 -3
-28 -13z"/>
<path d="M2145 2749 c-8 -12 11 -29 33 -29 19 0 10 34 -10 38 -9 2 -19 -2 -23
-9z"/>
<path d="M1622 2718 c2 -12 11 -24 21 -26 14 -3 18 1 15 20 -2 12 -11 24 -21
26 -14 3 -18 -1 -15 -20z"/>
<path d="M2470 2685 c-12 -14 -11 -18 1 -26 20 -12 34 -6 34 16 0 24 -19 30
-35 10z"/>
<path d="M2475 2610 c-8 -13 13 -40 30 -40 13 0 27 35 17 44 -9 10 -40 7 -47
-4z"/>
<path d="M4983 3923 c-70 -27 -113 -50 -113 -59 0 -22 27 -16 140 29 64 26
105 48 105 56 0 24 -16 21 -132 -26z"/>
<path d="M2206 1101 c-31 -61 -32 -71 -6 -71 40 0 79 106 43 117 -7 3 -23 -18
-37 -46z"/>
<path d="M2516 1042 c-8 -14 -96 -346 -96 -364 0 -11 7 -18 20 -18 15 0 23 14
39 68 46 156 82 303 76 312 -7 12 -32 13 -39 2z"/>
<path d="M2830 961 c0 -15 -3 -49 -6 -75 -7 -46 -6 -48 17 -44 21 3 25 11 33
62 9 52 8 60 -9 72 -28 20 -35 17 -35 -15z"/>
</g>
</svg>
